<svg width="892" height="706" viewBox="0 0 892 706" fill="none" xmlns="http://www.w3.org/2000/svg">
	<path d="M5.65954 692.929C0.60249 689.936 -0.787045 683.844 2.55564 679.322L97.2127 551.254C100.555 546.731 107.367 545.487 112.424 548.48C117.481 551.474 118.867 557.57 115.525 562.092L20.8675 690.16C17.5248 694.683 10.7166 695.922 5.65954 692.929Z" fill="#5C73BC" fill-opacity="0.5" />
	<path d="M31.156 703.638C26.0989 700.645 24.7094 694.554 28.052 690.031C74.9167 626.625 134.886 600.5 176.942 589.745C222.67 578.06 257.174 581.455 258.623 581.604C264.646 582.226 268.965 587.103 268.265 592.493C267.571 597.874 262.139 601.732 256.117 601.117C255.599 601.065 223.636 598.079 182.058 608.874C126.47 623.302 80.8175 654.255 46.3639 700.87C43.0212 705.392 36.213 706.632 31.156 703.638Z" fill="#FF4E61" fill-opacity="0.5" />
	<path d="M308.966 152.65C307.121 152.65 305.253 152.235 303.541 151.358C298.273 148.67 296.44 142.672 299.445 137.966L383.905 5.59452C386.911 0.888296 393.612 -0.751359 398.881 1.93643C404.149 4.62422 405.982 10.6225 402.977 15.3287L318.517 147.7C316.492 150.87 312.784 152.65 308.966 152.65Z" fill="#62D38F" fill-opacity="0.3" />
	<path d="M740.771 598.42C740.771 598.42 730.27 542.351 760.406 531.176C785.724 521.788 807.673 563.306 828.476 548.254C849.547 533.007 796.946 508.852 814.077 490.616C832.106 471.423 890 490.616 890 490.616" stroke="white" stroke-width="10" />
</svg>
