<svg width="567" height="335" viewBox="0 0 567 335" fill="none" xmlns="http://www.w3.org/2000/svg">
	<path d="M2 201L15.83 217.34L29.66 201L43.49 217.34L57.32 201L71.16 217.34L85 201" stroke="#1D262D" stroke-width="4" stroke-miterlimit="10" />
	<path d="M2 179L15.83 195.34L29.66 179L43.49 195.34L57.32 179L71.16 195.34L85 179" stroke="#1D262D" stroke-width="4" stroke-miterlimit="10" />
	<path d="M440.5 335V322M447 328.5H434H447Z" stroke="#8BD2BD" stroke-miterlimit="10" />
	<path d="M440.5 303V290M447 296.5H434H447Z" stroke="#8BD2BD" stroke-miterlimit="10" />
	<path d="M440.5 272V259M447 265.5H434H447Z" stroke="#8BD2BD" stroke-miterlimit="10" />
	<path d="M440.5 335V322M447 328.5H434H447Z" stroke="#1D262D" stroke-width="2" stroke-miterlimit="10" />
	<path d="M440.5 303V290M447 296.5H434H447Z" stroke="#1D262D" stroke-width="2" stroke-miterlimit="10" />
	<path d="M440.5 272V259M447 265.5H434H447Z" stroke="#1D262D" stroke-width="2" stroke-miterlimit="10" />
	<path d="M470.5 335V322M477 328.5H464H477Z" stroke="#8BD2BD" stroke-miterlimit="10" />
	<path d="M470.5 303V290M477 296.5H464H477Z" stroke="#8BD2BD" stroke-miterlimit="10" />
	<path d="M470.5 272V259M477 265.5H464H477Z" stroke="#8BD2BD" stroke-miterlimit="10" />
	<path d="M470.5 335V322M477 328.5H464H477Z" stroke="#1D262D" stroke-width="2" stroke-miterlimit="10" />
	<path d="M470.5 303V290M477 296.5H464H477Z" stroke="#1D262D" stroke-width="2" stroke-miterlimit="10" />
	<path d="M470.5 272V259M477 265.5H464H477Z" stroke="#1D262D" stroke-width="2" stroke-miterlimit="10" />
	<path d="M500.5 303V290M507 296.5H494H507Z" stroke="#8BD2BD" stroke-miterlimit="10" />
	<path d="M500.5 272V259M507 265.5H494H507Z" stroke="#8BD2BD" stroke-miterlimit="10" />
	<path d="M500.5 303V290M507 296.5H494H507Z" stroke="#1D262D" stroke-width="2" stroke-miterlimit="10" />
	<path d="M500.5 272V259M507 265.5H494H507Z" stroke="#1D262D" stroke-width="2" stroke-miterlimit="10" />
	<path d="M530.5 303V290M537 296.5H524H537Z" stroke="#8BD2BD" stroke-miterlimit="10" />
	<path d="M530.5 272V259M537 265.5H524H537Z" stroke="#8BD2BD" stroke-miterlimit="10" />
	<path d="M530.5 303V290M537 296.5H524H537Z" stroke="#1D262D" stroke-width="2" stroke-miterlimit="10" />
	<path d="M530.5 272V259M537 265.5H524H537Z" stroke="#1D262D" stroke-width="2" stroke-miterlimit="10" />
	<path d="M560.5 303V290M567 296.5H554H567Z" stroke="#8BD2BD" stroke-miterlimit="10" />
	<path d="M560.5 272V259M567 265.5H554H567Z" stroke="#8BD2BD" stroke-miterlimit="10" />
	<path d="M560.5 303V290M567 296.5H554H567Z" stroke="#1D262D" stroke-width="2" stroke-miterlimit="10" />
	<path d="M560.5 272V259M567 265.5H554H567Z" stroke="#1D262D" stroke-width="2" stroke-miterlimit="10" />
	<path d="M67.13 11H55V23.13H67.13V11Z" stroke="#8BD2BD" stroke-width="2" stroke-miterlimit="10" />
	<path d="M89.57 11H77.44V23.13H89.57V11Z" stroke="#8BD2BD" stroke-width="2" stroke-miterlimit="10" />
	<path d="M112 11H99.87V23.13H112V11Z" stroke="#8BD2BD" stroke-width="2" stroke-miterlimit="10" />
	<path d="M134.44 11H122.31V23.13H134.44V11Z" stroke="#8BD2BD" stroke-width="2" stroke-miterlimit="10" />
	<path d="M156.87 11H144.74V23.13H156.87V11Z" stroke="#8BD2BD" stroke-width="2" stroke-miterlimit="10" />
	<path d="M179.3 11H167.17V23.13H179.3V11Z" stroke="#8BD2BD" stroke-width="2" stroke-miterlimit="10" />
	<path d="M201.74 11H189.61V23.13H201.74V11Z" stroke="#8BD2BD" stroke-width="2" stroke-miterlimit="10" />
	<path d="M67.13 30.79H55V42.92H67.13V30.79Z" stroke="#8BD2BD" stroke-width="2" stroke-miterlimit="10" />
	<path d="M89.57 30.79H77.44V42.92H89.57V30.79Z" stroke="#8BD2BD" stroke-width="2" stroke-miterlimit="10" />
	<path d="M112 30.79H99.87V42.92H112V30.79Z" stroke="#8BD2BD" stroke-width="2" stroke-miterlimit="10" />
	<path d="M134.44 30.79H122.31V42.92H134.44V30.79Z" stroke="#8BD2BD" stroke-width="2" stroke-miterlimit="10" />
	<path d="M156.87 30.79H144.74V42.92H156.87V30.79Z" stroke="#8BD2BD" stroke-width="2" stroke-miterlimit="10" />
	<path d="M179.3 30.79H167.17V42.92H179.3V30.79Z" stroke="#8BD2BD" stroke-width="2" stroke-miterlimit="10" />
	<path d="M201.74 30.79H189.61V42.92H201.74V30.79Z" stroke="#8BD2BD" stroke-width="2" stroke-miterlimit="10" />
	<path d="M55 1H67.13" stroke="#8BD2BD" stroke-width="2" stroke-miterlimit="10" stroke-linecap="square" />
	<path d="M77.44 1H89.56" stroke="#8BD2BD" stroke-width="2" stroke-miterlimit="10" stroke-linecap="square" />
</svg>
